<?xml version="1.0" encoding="UTF-8" standalone="no"?>
<!DOCTYPE svg PUBLIC "-//W3C//DTD SVG 1.1//EN"
 "http://www.w3.org/Graphics/SVG/1.1/DTD/svg11.dtd">
<!-- Generated by graphviz version 2.26.3 (20100126.1600)
 -->
<!-- Title: Control Pages: 1 -->
<svg width="184pt" height="280pt"
 viewBox="0.00 0.00 183.69 280.00" xmlns="http://www.w3.org/2000/svg" xmlns:xlink="http://www.w3.org/1999/xlink">
<g id="graph1" class="graph" transform="scale(1 1) rotate(0) translate(4 276)">
<title>Control</title>
<polygon fill="white" stroke="white" points="-4,5 -4,-276 180.688,-276 180.688,5 -4,5"/>
<!-- Initial -->
<g id="node1" class="node"><title>Initial</title>
<polygon fill="PowderBlue" stroke="PowderBlue" points="74.6879,-272 44.6879,-272 32.6879,-260 32.6879,-248 44.6879,-236 74.6879,-236 86.6879,-248 86.6879,-260 74.6879,-272"/>
<path fill="PowderBlue" stroke="PowderBlue" d="M44.6879,-272C38.6879,-272 32.6879,-266 32.6879,-260"/>
<path fill="PowderBlue" stroke="PowderBlue" d="M32.6879,-248C32.6879,-242 38.6879,-236 44.6879,-236"/>
<path fill="PowderBlue" stroke="PowderBlue" d="M74.6879,-236C80.6879,-236 86.6879,-242 86.6879,-248"/>
<path fill="PowderBlue" stroke="PowderBlue" d="M86.6879,-260C86.6879,-266 80.6879,-272 74.6879,-272"/>
<polyline fill="none" stroke="black" points="74.6879,-272 44.6879,-272 "/>
<path fill="none" stroke="black" d="M44.6879,-272C38.6879,-272 32.6879,-266 32.6879,-260"/>
<polyline fill="none" stroke="black" points="32.6879,-260 32.6879,-248 "/>
<path fill="none" stroke="black" d="M32.6879,-248C32.6879,-242 38.6879,-236 44.6879,-236"/>
<polyline fill="none" stroke="black" points="44.6879,-236 74.6879,-236 "/>
<path fill="none" stroke="black" d="M74.6879,-236C80.6879,-236 86.6879,-242 86.6879,-248"/>
<polyline fill="none" stroke="black" points="86.6879,-248 86.6879,-260 "/>
<path fill="none" stroke="black" d="M86.6879,-260C86.6879,-266 80.6879,-272 74.6879,-272"/>
<text text-anchor="middle" x="59.6879" y="-249.4" font-family="Arial" font-size="14.00">Initial</text>
</g>
<!-- Run -->
<g id="node3" class="node"><title>Run</title>
<polygon fill="PowderBlue" stroke="PowderBlue" points="74.6879,-198 44.6879,-198 32.6879,-186 32.6879,-174 44.6879,-162 74.6879,-162 86.6879,-174 86.6879,-186 74.6879,-198"/>
<path fill="PowderBlue" stroke="PowderBlue" d="M44.6879,-198C38.6879,-198 32.6879,-192 32.6879,-186"/>
<path fill="PowderBlue" stroke="PowderBlue" d="M32.6879,-174C32.6879,-168 38.6879,-162 44.6879,-162"/>
<path fill="PowderBlue" stroke="PowderBlue" d="M74.6879,-162C80.6879,-162 86.6879,-168 86.6879,-174"/>
<path fill="PowderBlue" stroke="PowderBlue" d="M86.6879,-186C86.6879,-192 80.6879,-198 74.6879,-198"/>
<polyline fill="none" stroke="black" points="74.6879,-198 44.6879,-198 "/>
<path fill="none" stroke="black" d="M44.6879,-198C38.6879,-198 32.6879,-192 32.6879,-186"/>
<polyline fill="none" stroke="black" points="32.6879,-186 32.6879,-174 "/>
<path fill="none" stroke="black" d="M32.6879,-174C32.6879,-168 38.6879,-162 44.6879,-162"/>
<polyline fill="none" stroke="black" points="44.6879,-162 74.6879,-162 "/>
<path fill="none" stroke="black" d="M74.6879,-162C80.6879,-162 86.6879,-168 86.6879,-174"/>
<polyline fill="none" stroke="black" points="86.6879,-174 86.6879,-186 "/>
<path fill="none" stroke="black" d="M86.6879,-186C86.6879,-192 80.6879,-198 74.6879,-198"/>
<text text-anchor="middle" x="59.6879" y="-175.4" font-family="Arial" font-size="14.00">Run</text>
</g>
<!-- Initial&#45;&gt;Run -->
<g id="edge2" class="edge"><title>Initial&#45;&gt;Run</title>
<path fill="none" stroke="black" d="M59.6879,-235.708C59.6879,-227.464 59.6879,-217.538 59.6879,-208.362"/>
<polygon fill="black" stroke="black" points="63.188,-208.082 59.6879,-198.082 56.188,-208.082 63.188,-208.082"/>
</g>
<!-- Error -->
<g id="node5" class="node"><title>Error</title>
<polygon fill="PowderBlue" stroke="PowderBlue" points="74.6879,-110 44.6879,-110 32.6879,-98 32.6879,-86 44.6879,-74 74.6879,-74 86.6879,-86 86.6879,-98 74.6879,-110"/>
<path fill="PowderBlue" stroke="PowderBlue" d="M44.6879,-110C38.6879,-110 32.6879,-104 32.6879,-98"/>
<path fill="PowderBlue" stroke="PowderBlue" d="M32.6879,-86C32.6879,-80 38.6879,-74 44.6879,-74"/>
<path fill="PowderBlue" stroke="PowderBlue" d="M74.6879,-74C80.6879,-74 86.6879,-80 86.6879,-86"/>
<path fill="PowderBlue" stroke="PowderBlue" d="M86.6879,-98C86.6879,-104 80.6879,-110 74.6879,-110"/>
<polyline fill="none" stroke="black" points="74.6879,-110 44.6879,-110 "/>
<path fill="none" stroke="black" d="M44.6879,-110C38.6879,-110 32.6879,-104 32.6879,-98"/>
<polyline fill="none" stroke="black" points="32.6879,-98 32.6879,-86 "/>
<path fill="none" stroke="black" d="M32.6879,-86C32.6879,-80 38.6879,-74 44.6879,-74"/>
<polyline fill="none" stroke="black" points="44.6879,-74 74.6879,-74 "/>
<path fill="none" stroke="black" d="M74.6879,-74C80.6879,-74 86.6879,-80 86.6879,-86"/>
<polyline fill="none" stroke="black" points="86.6879,-86 86.6879,-98 "/>
<path fill="none" stroke="black" d="M86.6879,-98C86.6879,-104 80.6879,-110 74.6879,-110"/>
<text text-anchor="middle" x="59.6879" y="-87.4" font-family="Arial" font-size="14.00">Error</text>
</g>
<!-- Run&#45;&gt;Error -->
<g id="edge4" class="edge"><title>Run&#45;&gt;Error</title>
<path fill="none" stroke="black" d="M32.4757,-169.845C21.1363,-164.102 9.12857,-155.685 2.68791,-144 -5.33179,-129.45 7.79959,-116.792 23.4693,-107.609"/>
<polygon fill="black" stroke="black" points="25.1516,-110.678 32.3176,-102.875 21.8492,-104.506 25.1516,-110.678"/>
<text text-anchor="middle" x="49.6879" y="-132.7" font-family="Arial bold italic" font-size="12.00" fill="Indigo">TimeoutOccured</text>
</g>
<!-- Run&#45;&gt;Error -->
<g id="edge6" class="edge"><title>Run&#45;&gt;Error</title>
<path fill="none" stroke="black" d="M84.1515,-161.716C89.2396,-156.598 93.8988,-150.605 96.6879,-144 100.567,-134.814 97.1455,-125.659 91.0773,-117.65"/>
<polygon fill="black" stroke="black" points="93.5718,-115.189 84.2991,-110.064 88.3518,-119.853 93.5718,-115.189"/>
<text text-anchor="middle" x="136.688" y="-132.7" font-family="Arial bold italic" font-size="12.00" fill="Indigo">OutOfBounds</text>
</g>
<!-- Final -->
<g id="node8" class="node"><title>Final</title>
<polygon fill="PowderBlue" stroke="PowderBlue" points="74.6879,-36 44.6879,-36 32.6879,-24 32.6879,-12 44.6879,-1.46056e-14 74.6879,-6.71068e-15 86.6879,-12 86.6879,-24 74.6879,-36"/>
<path fill="PowderBlue" stroke="PowderBlue" d="M44.6879,-36C38.6879,-36 32.6879,-30 32.6879,-24"/>
<path fill="PowderBlue" stroke="PowderBlue" d="M32.6879,-12C32.6879,-6 38.6879,-1.61846e-14 44.6879,-1.46056e-14"/>
<path fill="PowderBlue" stroke="PowderBlue" d="M74.6879,-6.71068e-15C80.6879,-5.1317e-15 86.6879,-6 86.6879,-12"/>
<path fill="PowderBlue" stroke="PowderBlue" d="M86.6879,-24C86.6879,-30 80.6879,-36 74.6879,-36"/>
<polyline fill="none" stroke="black" points="74.6879,-36 44.6879,-36 "/>
<path fill="none" stroke="black" d="M44.6879,-36C38.6879,-36 32.6879,-30 32.6879,-24"/>
<polyline fill="none" stroke="black" points="32.6879,-24 32.6879,-12 "/>
<path fill="none" stroke="black" d="M32.6879,-12C32.6879,-6 38.6879,-1.61846e-14 44.6879,-1.46056e-14"/>
<polyline fill="none" stroke="black" points="44.6879,-1.46056e-14 74.6879,-6.71068e-15 "/>
<path fill="none" stroke="black" d="M74.6879,-6.71068e-15C80.6879,-5.1317e-15 86.6879,-6 86.6879,-12"/>
<polyline fill="none" stroke="black" points="86.6879,-12 86.6879,-24 "/>
<path fill="none" stroke="black" d="M86.6879,-24C86.6879,-30 80.6879,-36 74.6879,-36"/>
<text text-anchor="middle" x="59.6879" y="-13.4" font-family="Arial" font-size="14.00">Final</text>
</g>
<!-- Error&#45;&gt;Final -->
<g id="edge8" class="edge"><title>Error&#45;&gt;Final</title>
<path fill="none" stroke="black" d="M59.6879,-73.7079C59.6879,-65.4635 59.6879,-55.5376 59.6879,-46.3622"/>
<polygon fill="black" stroke="black" points="63.188,-46.0817 59.6879,-36.0817 56.188,-46.0818 63.188,-46.0817"/>
</g>
</g>
</svg>
