<?xml version="1.0" encoding="UTF-8" standalone="no"?>
<!DOCTYPE svg PUBLIC "-//W3C//DTD SVG 1.1//EN"
 "http://www.w3.org/Graphics/SVG/1.1/DTD/svg11.dtd">
<!-- Generated by graphviz version 2.26.3 (20100126.1600)
 -->
<!-- Title: Led Pages: 1 -->
<svg width="141pt" height="206pt"
 viewBox="0.00 0.00 140.95 206.00" xmlns="http://www.w3.org/2000/svg" xmlns:xlink="http://www.w3.org/1999/xlink">
<g id="graph1" class="graph" transform="scale(1 1) rotate(0) translate(4 202)">
<title>Led</title>
<polygon fill="white" stroke="white" points="-4,5 -4,-202 137.953,-202 137.953,5 -4,5"/>
<!-- Initial -->
<g id="node1" class="node"><title>Initial</title>
<polygon fill="PowderBlue" stroke="PowderBlue" points="59.9533,-198 29.9533,-198 17.9533,-186 17.9533,-174 29.9533,-162 59.9533,-162 71.9533,-174 71.9533,-186 59.9533,-198"/>
<path fill="PowderBlue" stroke="PowderBlue" d="M29.9533,-198C23.9533,-198 17.9533,-192 17.9533,-186"/>
<path fill="PowderBlue" stroke="PowderBlue" d="M17.9533,-174C17.9533,-168 23.9533,-162 29.9533,-162"/>
<path fill="PowderBlue" stroke="PowderBlue" d="M59.9533,-162C65.9533,-162 71.9533,-168 71.9533,-174"/>
<path fill="PowderBlue" stroke="PowderBlue" d="M71.9533,-186C71.9533,-192 65.9533,-198 59.9533,-198"/>
<polyline fill="none" stroke="black" points="59.9533,-198 29.9533,-198 "/>
<path fill="none" stroke="black" d="M29.9533,-198C23.9533,-198 17.9533,-192 17.9533,-186"/>
<polyline fill="none" stroke="black" points="17.9533,-186 17.9533,-174 "/>
<path fill="none" stroke="black" d="M17.9533,-174C17.9533,-168 23.9533,-162 29.9533,-162"/>
<polyline fill="none" stroke="black" points="29.9533,-162 59.9533,-162 "/>
<path fill="none" stroke="black" d="M59.9533,-162C65.9533,-162 71.9533,-168 71.9533,-174"/>
<polyline fill="none" stroke="black" points="71.9533,-174 71.9533,-186 "/>
<path fill="none" stroke="black" d="M71.9533,-186C71.9533,-192 65.9533,-198 59.9533,-198"/>
<text text-anchor="middle" x="44.9533" y="-175.4" font-family="Arial" font-size="14.00">Initial</text>
</g>
<!-- Off -->
<g id="node3" class="node"><title>Off</title>
<polygon fill="PowderBlue" stroke="PowderBlue" points="59.9533,-124 29.9533,-124 17.9533,-112 17.9533,-100 29.9533,-88 59.9533,-88 71.9533,-100 71.9533,-112 59.9533,-124"/>
<path fill="PowderBlue" stroke="PowderBlue" d="M29.9533,-124C23.9533,-124 17.9533,-118 17.9533,-112"/>
<path fill="PowderBlue" stroke="PowderBlue" d="M17.9533,-100C17.9533,-94 23.9533,-88 29.9533,-88"/>
<path fill="PowderBlue" stroke="PowderBlue" d="M59.9533,-88C65.9533,-88 71.9533,-94 71.9533,-100"/>
<path fill="PowderBlue" stroke="PowderBlue" d="M71.9533,-112C71.9533,-118 65.9533,-124 59.9533,-124"/>
<polyline fill="none" stroke="black" points="59.9533,-124 29.9533,-124 "/>
<path fill="none" stroke="black" d="M29.9533,-124C23.9533,-124 17.9533,-118 17.9533,-112"/>
<polyline fill="none" stroke="black" points="17.9533,-112 17.9533,-100 "/>
<path fill="none" stroke="black" d="M17.9533,-100C17.9533,-94 23.9533,-88 29.9533,-88"/>
<polyline fill="none" stroke="black" points="29.9533,-88 59.9533,-88 "/>
<path fill="none" stroke="black" d="M59.9533,-88C65.9533,-88 71.9533,-94 71.9533,-100"/>
<polyline fill="none" stroke="black" points="71.9533,-100 71.9533,-112 "/>
<path fill="none" stroke="black" d="M71.9533,-112C71.9533,-118 65.9533,-124 59.9533,-124"/>
<text text-anchor="middle" x="44.9533" y="-101.4" font-family="Arial" font-size="14.00">Off</text>
</g>
<!-- Initial&#45;&gt;Off -->
<g id="edge2" class="edge"><title>Initial&#45;&gt;Off</title>
<path fill="none" stroke="black" d="M44.9533,-161.708C44.9533,-153.464 44.9533,-143.538 44.9533,-134.362"/>
<polygon fill="black" stroke="black" points="48.4534,-134.082 44.9533,-124.082 41.4534,-134.082 48.4534,-134.082"/>
</g>
<!-- On -->
<g id="node5" class="node"><title>On</title>
<polygon fill="PowderBlue" stroke="PowderBlue" points="59.9533,-36 29.9533,-36 17.9533,-24 17.9533,-12 29.9533,-1.46056e-14 59.9533,-6.71068e-15 71.9533,-12 71.9533,-24 59.9533,-36"/>
<path fill="PowderBlue" stroke="PowderBlue" d="M29.9533,-36C23.9533,-36 17.9533,-30 17.9533,-24"/>
<path fill="PowderBlue" stroke="PowderBlue" d="M17.9533,-12C17.9533,-6 23.9533,-1.61846e-14 29.9533,-1.46056e-14"/>
<path fill="PowderBlue" stroke="PowderBlue" d="M59.9533,-6.71068e-15C65.9533,-5.1317e-15 71.9533,-6 71.9533,-12"/>
<path fill="PowderBlue" stroke="PowderBlue" d="M71.9533,-24C71.9533,-30 65.9533,-36 59.9533,-36"/>
<polyline fill="none" stroke="black" points="59.9533,-36 29.9533,-36 "/>
<path fill="none" stroke="black" d="M29.9533,-36C23.9533,-36 17.9533,-30 17.9533,-24"/>
<polyline fill="none" stroke="black" points="17.9533,-24 17.9533,-12 "/>
<path fill="none" stroke="black" d="M17.9533,-12C17.9533,-6 23.9533,-1.61846e-14 29.9533,-1.46056e-14"/>
<polyline fill="none" stroke="black" points="29.9533,-1.46056e-14 59.9533,-6.71068e-15 "/>
<path fill="none" stroke="black" d="M59.9533,-6.71068e-15C65.9533,-5.1317e-15 71.9533,-6 71.9533,-12"/>
<polyline fill="none" stroke="black" points="71.9533,-12 71.9533,-24 "/>
<path fill="none" stroke="black" d="M71.9533,-24C71.9533,-30 65.9533,-36 59.9533,-36"/>
<text text-anchor="middle" x="44.9533" y="-13.4" font-family="Arial" font-size="14.00">On</text>
</g>
<!-- Off&#45;&gt;On -->
<g id="edge4" class="edge"><title>Off&#45;&gt;On</title>
<path fill="none" stroke="black" d="M17.938,-89.4952C11.5114,-84.1388 5.49617,-77.5866 1.95333,-70 -2.83877,-59.7382 2.12145,-49.8108 10.1514,-41.4288"/>
<polygon fill="black" stroke="black" points="12.7566,-43.7921 17.8303,-34.4911 8.06385,-38.598 12.7566,-43.7921"/>
<text text-anchor="middle" x="34.4533" y="-58.7" font-family="Arial bold italic" font-size="12.00" fill="Indigo">LedTurnOn</text>
</g>
<!-- On&#45;&gt;Off -->
<g id="edge6" class="edge"><title>On&#45;&gt;Off</title>
<path fill="none" stroke="black" d="M59.3886,-36.3643C65.3478,-46.1385 70.1924,-58.488 66.9533,-70 66.1077,-73.0054 64.9338,-76.0081 63.5643,-78.9256"/>
<polygon fill="black" stroke="black" points="60.4095,-77.3999 58.6862,-87.8537 66.5524,-80.7563 60.4095,-77.3999"/>
<text text-anchor="middle" x="100.453" y="-58.7" font-family="Arial bold italic" font-size="12.00" fill="Indigo">LedTurnOff</text>
</g>
</g>
</svg>
