<?xml version="1.0" encoding="UTF-8" standalone="no"?>
<!DOCTYPE svg PUBLIC "-//W3C//DTD SVG 1.1//EN"
 "http://www.w3.org/Graphics/SVG/1.1/DTD/svg11.dtd">
<!-- Generated by graphviz version 2.26.3 (20100126.1600)
 -->
<!-- Title: System_Timer Pages: 1 -->
<svg width="104pt" height="118pt"
 viewBox="0.00 0.00 104.00 118.00" xmlns="http://www.w3.org/2000/svg" xmlns:xlink="http://www.w3.org/1999/xlink">
<g id="graph1" class="graph" transform="scale(1 1) rotate(0) translate(4 114)">
<title>System_Timer</title>
<polygon fill="white" stroke="white" points="-4,5 -4,-114 101,-114 101,5 -4,5"/>
<!-- Initial -->
<g id="node1" class="node"><title>Initial</title>
<polygon fill="PowderBlue" stroke="PowderBlue" points="42,-110 12,-110 1.42109e-14,-98 7.10543e-15,-86 12,-74 42,-74 54,-86 54,-98 42,-110"/>
<path fill="PowderBlue" stroke="PowderBlue" d="M12,-110C6,-110 1.77636e-14,-104 1.42109e-14,-98"/>
<path fill="PowderBlue" stroke="PowderBlue" d="M7.10543e-15,-86C3.55271e-15,-80 6,-74 12,-74"/>
<path fill="PowderBlue" stroke="PowderBlue" d="M42,-74C48,-74 54,-80 54,-86"/>
<path fill="PowderBlue" stroke="PowderBlue" d="M54,-98C54,-104 48,-110 42,-110"/>
<polyline fill="none" stroke="black" points="42,-110 12,-110 "/>
<path fill="none" stroke="black" d="M12,-110C6,-110 1.77636e-14,-104 1.42109e-14,-98"/>
<polyline fill="none" stroke="black" points="1.42109e-14,-98 7.10543e-15,-86 "/>
<path fill="none" stroke="black" d="M7.10543e-15,-86C3.55271e-15,-80 6,-74 12,-74"/>
<polyline fill="none" stroke="black" points="12,-74 42,-74 "/>
<path fill="none" stroke="black" d="M42,-74C48,-74 54,-80 54,-86"/>
<polyline fill="none" stroke="black" points="54,-86 54,-98 "/>
<path fill="none" stroke="black" d="M54,-98C54,-104 48,-110 42,-110"/>
<text text-anchor="middle" x="27" y="-87.4" font-family="Arial" font-size="14.00">Initial</text>
</g>
<!-- Running -->
<g id="node3" class="node"><title>Running</title>
<polygon fill="PowderBlue" stroke="PowderBlue" points="42,-36 12,-36 1.42109e-14,-24 7.10543e-15,-12 12,-1.46056e-14 42,-6.71068e-15 54,-12 54,-24 42,-36"/>
<path fill="PowderBlue" stroke="PowderBlue" d="M12,-36C6,-36 1.77636e-14,-30 1.42109e-14,-24"/>
<path fill="PowderBlue" stroke="PowderBlue" d="M7.10543e-15,-12C3.55271e-15,-6 6,-1.61846e-14 12,-1.46056e-14"/>
<path fill="PowderBlue" stroke="PowderBlue" d="M42,-6.71068e-15C48,-5.1317e-15 54,-6 54,-12"/>
<path fill="PowderBlue" stroke="PowderBlue" d="M54,-24C54,-30 48,-36 42,-36"/>
<polyline fill="none" stroke="black" points="42,-36 12,-36 "/>
<path fill="none" stroke="black" d="M12,-36C6,-36 1.77636e-14,-30 1.42109e-14,-24"/>
<polyline fill="none" stroke="black" points="1.42109e-14,-24 7.10543e-15,-12 "/>
<path fill="none" stroke="black" d="M7.10543e-15,-12C3.55271e-15,-6 6,-1.61846e-14 12,-1.46056e-14"/>
<polyline fill="none" stroke="black" points="12,-1.46056e-14 42,-6.71068e-15 "/>
<path fill="none" stroke="black" d="M42,-6.71068e-15C48,-5.1317e-15 54,-6 54,-12"/>
<polyline fill="none" stroke="black" points="54,-12 54,-24 "/>
<path fill="none" stroke="black" d="M54,-24C54,-30 48,-36 42,-36"/>
<text text-anchor="middle" x="27" y="-13.4" font-family="Arial" font-size="14.00">Running</text>
</g>
<!-- Initial&#45;&gt;Running -->
<g id="edge2" class="edge"><title>Initial&#45;&gt;Running</title>
<path fill="none" stroke="black" d="M27,-73.7079C27,-65.4635 27,-55.5376 27,-46.3622"/>
<polygon fill="black" stroke="black" points="30.5001,-46.0817 27,-36.0817 23.5001,-46.0818 30.5001,-46.0817"/>
</g>
<!-- Running&#45;&gt;Running -->
<g id="edge4" class="edge"><title>Running&#45;&gt;Running</title>
<path fill="none" stroke="black" d="M54.2408,-24.7434C64.0239,-24.8884 72,-22.6406 72,-18 72,-15.1721 69.0382,-13.2328 64.5105,-12.182"/>
<polygon fill="black" stroke="black" points="64.5146,-8.66827 54.2408,-11.2566 63.8863,-15.64 64.5146,-8.66827"/>
<text text-anchor="middle" x="84" y="-14.7" font-family="Arial bold italic" font-size="12.00" fill="Indigo">Tick</text>
</g>
</g>
</svg>
