<?xml version="1.0" encoding="UTF-8" standalone="no"?>
<!DOCTYPE svg PUBLIC "-//W3C//DTD SVG 1.1//EN"
 "http://www.w3.org/Graphics/SVG/1.1/DTD/svg11.dtd">
<!-- Generated by graphviz version 2.26.3 (20100126.1600)
 -->
<!-- Title: Sensor Pages: 1 -->
<svg width="169pt" height="220pt"
 viewBox="0.00 0.00 169.00 220.00" xmlns="http://www.w3.org/2000/svg" xmlns:xlink="http://www.w3.org/1999/xlink">
<g id="graph1" class="graph" transform="scale(1 1) rotate(0) translate(4 216)">
<title>Sensor</title>
<polygon fill="white" stroke="white" points="-4,5 -4,-216 166,-216 166,5 -4,5"/>
<!-- Initial -->
<g id="node1" class="node"><title>Initial</title>
<polygon fill="PowderBlue" stroke="PowderBlue" points="111,-212 81,-212 69,-200 69,-188 81,-176 111,-176 123,-188 123,-200 111,-212"/>
<path fill="PowderBlue" stroke="PowderBlue" d="M81,-212C75,-212 69,-206 69,-200"/>
<path fill="PowderBlue" stroke="PowderBlue" d="M69,-188C69,-182 75,-176 81,-176"/>
<path fill="PowderBlue" stroke="PowderBlue" d="M111,-176C117,-176 123,-182 123,-188"/>
<path fill="PowderBlue" stroke="PowderBlue" d="M123,-200C123,-206 117,-212 111,-212"/>
<polyline fill="none" stroke="black" points="111,-212 81,-212 "/>
<path fill="none" stroke="black" d="M81,-212C75,-212 69,-206 69,-200"/>
<polyline fill="none" stroke="black" points="69,-200 69,-188 "/>
<path fill="none" stroke="black" d="M69,-188C69,-182 75,-176 81,-176"/>
<polyline fill="none" stroke="black" points="81,-176 111,-176 "/>
<path fill="none" stroke="black" d="M111,-176C117,-176 123,-182 123,-188"/>
<polyline fill="none" stroke="black" points="123,-188 123,-200 "/>
<path fill="none" stroke="black" d="M123,-200C123,-206 117,-212 111,-212"/>
<text text-anchor="middle" x="96" y="-189.4" font-family="Arial" font-size="14.00">Initial</text>
</g>
<!-- WaitForLedOn -->
<g id="node3" class="node"><title>WaitForLedOn</title>
<polygon fill="PowderBlue" stroke="PowderBlue" points="82,-124 12,-124 2.13163e-14,-112 7.10543e-15,-100 12,-88 82,-88 94,-100 94,-112 82,-124"/>
<path fill="PowderBlue" stroke="PowderBlue" d="M12,-124C6,-124 2.84217e-14,-118 2.13163e-14,-112"/>
<path fill="PowderBlue" stroke="PowderBlue" d="M7.10543e-15,-100C0,-94 6,-88 12,-88"/>
<path fill="PowderBlue" stroke="PowderBlue" d="M82,-88C88,-88 94,-94 94,-100"/>
<path fill="PowderBlue" stroke="PowderBlue" d="M94,-112C94,-118 88,-124 82,-124"/>
<polyline fill="none" stroke="black" points="82,-124 12,-124 "/>
<path fill="none" stroke="black" d="M12,-124C6,-124 2.84217e-14,-118 2.13163e-14,-112"/>
<polyline fill="none" stroke="black" points="2.13163e-14,-112 7.10543e-15,-100 "/>
<path fill="none" stroke="black" d="M7.10543e-15,-100C0,-94 6,-88 12,-88"/>
<polyline fill="none" stroke="black" points="12,-88 82,-88 "/>
<path fill="none" stroke="black" d="M82,-88C88,-88 94,-94 94,-100"/>
<polyline fill="none" stroke="black" points="94,-100 94,-112 "/>
<path fill="none" stroke="black" d="M94,-112C94,-118 88,-124 82,-124"/>
<text text-anchor="middle" x="47" y="-101.4" font-family="Arial" font-size="14.00">WaitForLedOn</text>
</g>
<!-- Initial&#45;&gt;WaitForLedOn -->
<g id="edge2" class="edge"><title>Initial&#45;&gt;WaitForLedOn</title>
<path fill="none" stroke="black" d="M85.8472,-175.766C79.0144,-163.495 69.8828,-147.096 62.1899,-133.28"/>
<polygon fill="black" stroke="black" points="65.0626,-131.244 57.1398,-124.21 58.9468,-134.65 65.0626,-131.244"/>
<text text-anchor="middle" x="95" y="-146.7" font-family="Arial bold italic" font-size="12.00" fill="Indigo">LedOff</text>
</g>
<!-- WaitForLedOff -->
<g id="node5" class="node"><title>WaitForLedOff</title>
<polygon fill="PowderBlue" stroke="PowderBlue" points="112,-36 42,-36 30,-24 30,-12 42,-1.59494e-14 112,-5.36687e-15 124,-12 124,-24 112,-36"/>
<path fill="PowderBlue" stroke="PowderBlue" d="M42,-36C36,-36 30,-30 30,-24"/>
<path fill="PowderBlue" stroke="PowderBlue" d="M30,-12C30,-6 36,-1.68565e-14 42,-1.59494e-14"/>
<path fill="PowderBlue" stroke="PowderBlue" d="M112,-5.36687e-15C118,-4.45979e-15 124,-6 124,-12"/>
<path fill="PowderBlue" stroke="PowderBlue" d="M124,-24C124,-30 118,-36 112,-36"/>
<polyline fill="none" stroke="black" points="112,-36 42,-36 "/>
<path fill="none" stroke="black" d="M42,-36C36,-36 30,-30 30,-24"/>
<polyline fill="none" stroke="black" points="30,-24 30,-12 "/>
<path fill="none" stroke="black" d="M30,-12C30,-6 36,-1.68565e-14 42,-1.59494e-14"/>
<polyline fill="none" stroke="black" points="42,-1.59494e-14 112,-5.36687e-15 "/>
<path fill="none" stroke="black" d="M112,-5.36687e-15C118,-4.45979e-15 124,-6 124,-12"/>
<polyline fill="none" stroke="black" points="124,-12 124,-24 "/>
<path fill="none" stroke="black" d="M124,-24C124,-30 118,-36 112,-36"/>
<text text-anchor="middle" x="77" y="-13.4" font-family="Arial" font-size="14.00">WaitForLedOff</text>
</g>
<!-- Initial&#45;&gt;WaitForLedOff -->
<g id="edge4" class="edge"><title>Initial&#45;&gt;WaitForLedOff</title>
<path fill="none" stroke="black" d="M108.496,-175.706C111.565,-170.248 114.422,-164.091 116,-158 122.995,-131.007 132.948,-115.66 107,-54 105.558,-50.574 103.676,-47.2243 101.555,-44.0327"/>
<polygon fill="black" stroke="black" points="104.333,-41.9024 95.5276,-36.0099 98.7362,-46.1072 104.333,-41.9024"/>
<text text-anchor="middle" x="142" y="-102.7" font-family="Arial bold italic" font-size="12.00" fill="Indigo">LedOn</text>
</g>
<!-- WaitForLedOn&#45;&gt;WaitForLedOff -->
<g id="edge6" class="edge"><title>WaitForLedOn&#45;&gt;WaitForLedOff</title>
<path fill="none" stroke="black" d="M26.2183,-87.7518C17.472,-77.798 10.6324,-65.2463 17,-54 19.4165,-49.7319 22.5633,-45.9147 26.1497,-42.5122"/>
<polygon fill="black" stroke="black" points="28.4857,-45.1239 34.036,-36.0992 24.0693,-39.6929 28.4857,-45.1239"/>
<text text-anchor="middle" x="36" y="-58.7" font-family="Arial bold italic" font-size="12.00" fill="Indigo">LedOn</text>
</g>
<!-- WaitForLedOff&#45;&gt;WaitForLedOn -->
<g id="edge8" class="edge"><title>WaitForLedOff&#45;&gt;WaitForLedOn</title>
<path fill="none" stroke="black" d="M70.7919,-36.2103C66.6506,-48.3583 61.1274,-64.5598 56.4451,-78.2945"/>
<polygon fill="black" stroke="black" points="53.13,-77.1719 53.216,-87.7663 59.7556,-79.4306 53.13,-77.1719"/>
<text text-anchor="middle" x="84" y="-58.7" font-family="Arial bold italic" font-size="12.00" fill="Indigo">LedOff</text>
</g>
</g>
</svg>
