<?xml version="1.0" encoding="UTF-8" standalone="no"?>
<!DOCTYPE svg PUBLIC "-//W3C//DTD SVG 1.1//EN"
 "http://www.w3.org/Graphics/SVG/1.1/DTD/svg11.dtd">
<!-- Generated by graphviz version 2.38.0 (20140413.2041)
 -->
<!-- Title: Root Pages: 1 -->
<svg width="1058pt" height="335pt"
 viewBox="0.00 0.00 1058.00 334.80" xmlns="http://www.w3.org/2000/svg" xmlns:xlink="http://www.w3.org/1999/xlink">
<g id="graph0" class="graph" transform="scale(1 1) rotate(0) translate(4 330.8)">
<title>Root</title>
<polygon fill="white" stroke="none" points="-4,4 -4,-330.8 1054,-330.8 1054,4 -4,4"/>
<g id="clust1" class="cluster"><title>cluster0</title>
<path fill="cornsilk" stroke="black" d="M20,-8C20,-8 982,-8 982,-8 988,-8 994,-14 994,-20 994,-20 994,-306.8 994,-306.8 994,-312.8 988,-318.8 982,-318.8 982,-318.8 20,-318.8 20,-318.8 14,-318.8 8,-312.8 8,-306.8 8,-306.8 8,-20 8,-20 8,-14 14,-8 20,-8"/>
<text text-anchor="middle" x="501" y="-303.6" font-family="Arial" font-size="14.00">mod_gen_stdvpart_vp_motor_temperatur</text>
</g>
<!-- node0_is_Initial -->
<g id="node1" class="node"><title>node0_is_Initial</title>
<ellipse fill="black" stroke="black" cx="382" cy="-282.4" rx="5.4" ry="5.4"/>
<text text-anchor="start" x="355.6" y="-291.4" font-family="Arial" font-style="italic" font-size="8.00">Initial</text>
</g>
<!-- node1_is_hoch -->
<g id="node2" class="node"><title>node1_is_hoch</title>
<path fill="none" stroke="black" d="M397,-226C397,-226 367,-226 367,-226 361,-226 355,-220 355,-214 355,-214 355,-202 355,-202 355,-196 361,-190 367,-190 367,-190 397,-190 397,-190 403,-190 409,-196 409,-202 409,-202 409,-214 409,-214 409,-220 403,-226 397,-226"/>
<text text-anchor="middle" x="382" y="-204.3" font-family="Arial" font-size="14.00">hoch</text>
</g>
<!-- node0_is_Initial&#45;&gt;node1_is_hoch -->
<g id="edge1" class="edge"><title>node0_is_Initial&#45;&gt;node1_is_hoch</title>
<path fill="none" stroke="black" d="M382,-276.65C382,-268.549 382,-251.485 382,-236.523"/>
<polygon fill="black" stroke="black" points="385.5,-236.158 382,-226.158 378.5,-236.158 385.5,-236.158"/>
<text text-anchor="start" x="382" y="-248.8" font-family="Courier,monospace" font-size="14.00"> </text>
<text text-anchor="start" x="391" y="-248.8" font-family="Courier,monospace" font-size="10.00">[mod_gen_stdvpart_vp_motor_temperatur.guard_1]</text>
<text text-anchor="start" x="668" y="-248.8" font-family="Courier,monospace" font-size="14.00"> </text>
</g>
<!-- node2_is_mittel -->
<g id="node3" class="node"><title>node2_is_mittel</title>
<path fill="none" stroke="black" d="M58,-139C58,-139 28,-139 28,-139 22,-139 16,-133 16,-127 16,-127 16,-115 16,-115 16,-109 22,-103 28,-103 28,-103 58,-103 58,-103 64,-103 70,-109 70,-115 70,-115 70,-127 70,-127 70,-133 64,-139 58,-139"/>
<text text-anchor="middle" x="43" y="-117.3" font-family="Arial" font-size="14.00">mittel</text>
</g>
<!-- node0_is_Initial&#45;&gt;node2_is_mittel -->
<g id="edge2" class="edge"><title>node0_is_Initial&#45;&gt;node2_is_mittel</title>
<path fill="none" stroke="black" d="M376.266,-281.187C336.702,-279.608 104.226,-268.592 51,-226 25.8684,-205.889 22.9131,-188.607 29,-157 29.5271,-154.263 30.2664,-151.467 31.1327,-148.709"/>
<polygon fill="black" stroke="black" points="34.5173,-149.645 34.6741,-139.052 27.9452,-147.235 34.5173,-149.645"/>
<text text-anchor="start" x="51" y="-205.3" font-family="Courier,monospace" font-size="14.00"> </text>
<text text-anchor="start" x="60" y="-205.3" font-family="Courier,monospace" font-size="10.00">[mod_gen_stdvpart_vp_motor_temperatur.guard_2]</text>
<text text-anchor="start" x="337" y="-205.3" font-family="Courier,monospace" font-size="14.00"> </text>
</g>
<!-- node3_is_niedrig -->
<g id="node4" class="node"><title>node3_is_niedrig</title>
<path fill="none" stroke="black" d="M670.5,-52C670.5,-52 635.5,-52 635.5,-52 629.5,-52 623.5,-46 623.5,-40 623.5,-40 623.5,-28 623.5,-28 623.5,-22 629.5,-16 635.5,-16 635.5,-16 670.5,-16 670.5,-16 676.5,-16 682.5,-22 682.5,-28 682.5,-28 682.5,-40 682.5,-40 682.5,-46 676.5,-52 670.5,-52"/>
<text text-anchor="middle" x="653" y="-30.3" font-family="Arial" font-size="14.00">niedrig</text>
</g>
<!-- node0_is_Initial&#45;&gt;node3_is_niedrig -->
<g id="edge3" class="edge"><title>node0_is_Initial&#45;&gt;node3_is_niedrig</title>
<path fill="none" stroke="black" d="M387.656,-281.261C426.612,-280.266 654.408,-273.839 681,-259 729.908,-231.709 706.181,-184.45 755,-157 797.95,-132.85 942.602,-175.228 976,-139 1058.71,-49.2799 796.111,-36.6623 692.851,-35.1143"/>
<polygon fill="black" stroke="black" points="692.839,-31.614 682.797,-34.9913 692.753,-38.6135 692.839,-31.614"/>
<text text-anchor="start" x="755" y="-161.8" font-family="Courier,monospace" font-size="14.00"> </text>
<text text-anchor="start" x="764" y="-161.8" font-family="Courier,monospace" font-size="10.00">[mod_gen_stdvpart_vp_motor_temperatur.guard_3]</text>
<text text-anchor="start" x="1041" y="-161.8" font-family="Courier,monospace" font-size="14.00"> </text>
</g>
<!-- node1_is_hoch&#45;&gt;node2_is_mittel -->
<g id="edge4" class="edge"><title>node1_is_hoch&#45;&gt;node2_is_mittel</title>
<path fill="none" stroke="black" d="M371.251,-189.651C363.267,-178.367 351.308,-164.417 337,-157 293.141,-134.265 149.396,-125.939 80.4897,-123.201"/>
<polygon fill="black" stroke="black" points="80.2251,-119.689 70.1,-122.809 79.9607,-126.684 80.2251,-119.689"/>
<text text-anchor="start" x="356" y="-161.8" font-family="Courier,monospace" font-size="14.00"> </text>
<text text-anchor="start" x="365" y="-161.8" font-family="Courier,monospace" font-size="10.00">[mod_gen_stdvpart_vp_motor_temperatur.guard_4]</text>
<text text-anchor="start" x="642" y="-161.8" font-family="Courier,monospace" font-size="14.00"> </text>
</g>
<!-- node1_is_hoch&#45;&gt;node3_is_niedrig -->
<g id="edge5" class="edge"><title>node1_is_hoch&#45;&gt;node3_is_niedrig</title>
<path fill="none" stroke="black" d="M409.176,-206.285C484.746,-203.827 689.622,-193.726 655,-157 608.426,-107.597 396.574,-188.403 350,-139 339.025,-127.358 339.033,-114.65 350,-103 395.475,-54.695 600.175,-130.98 648,-85 654.014,-79.2183 656.232,-70.7796 656.652,-62.4754"/>
<polygon fill="black" stroke="black" points="660.144,-62.1395 656.372,-52.239 653.147,-62.3311 660.144,-62.1395"/>
<text text-anchor="start" x="350" y="-118.3" font-family="Courier,monospace" font-size="14.00"> </text>
<text text-anchor="start" x="359" y="-118.3" font-family="Courier,monospace" font-size="10.00">[mod_gen_stdvpart_vp_motor_temperatur.guard_5]</text>
<text text-anchor="start" x="636" y="-118.3" font-family="Courier,monospace" font-size="14.00"> </text>
</g>
<!-- node2_is_mittel&#45;&gt;node1_is_hoch -->
<g id="edge6" class="edge"><title>node2_is_mittel&#45;&gt;node1_is_hoch</title>
<path fill="none" stroke="black" d="M35.2179,-139.443C31.735,-150.186 29.9896,-163.486 38,-172 60.5023,-195.917 300.799,-183.558 333,-190 336.959,-190.792 341.035,-191.828 345.065,-192.999"/>
<polygon fill="black" stroke="black" points="344.305,-196.43 354.896,-196.123 346.425,-189.758 344.305,-196.43"/>
<text text-anchor="start" x="38" y="-161.8" font-family="Courier,monospace" font-size="14.00"> </text>
<text text-anchor="start" x="47" y="-161.8" font-family="Courier,monospace" font-size="10.00">[mod_gen_stdvpart_vp_motor_temperatur.guard_6]</text>
<text text-anchor="start" x="324" y="-161.8" font-family="Courier,monospace" font-size="14.00"> </text>
</g>
<!-- node2_is_mittel&#45;&gt;node3_is_niedrig -->
<g id="edge7" class="edge"><title>node2_is_mittel&#45;&gt;node3_is_niedrig</title>
<path fill="none" stroke="black" d="M70.0527,-120.714C122.079,-121.226 238.984,-118.185 330,-85 341.466,-80.8195 341.523,-74.1506 353,-70 399.903,-53.0372 542.759,-41.9575 613.062,-37.3844"/>
<polygon fill="black" stroke="black" points="613.536,-40.8613 623.293,-36.7316 613.09,-33.8755 613.536,-40.8613"/>
<text text-anchor="start" x="353" y="-74.8" font-family="Courier,monospace" font-size="14.00"> </text>
<text text-anchor="start" x="362" y="-74.8" font-family="Courier,monospace" font-size="10.00">[mod_gen_stdvpart_vp_motor_temperatur.guard_7]</text>
<text text-anchor="start" x="639" y="-74.8" font-family="Courier,monospace" font-size="14.00"> </text>
</g>
<!-- node3_is_niedrig&#45;&gt;node1_is_hoch -->
<g id="edge8" class="edge"><title>node3_is_niedrig&#45;&gt;node1_is_hoch</title>
<path fill="none" stroke="black" d="M661.038,-52.2102C673.099,-80.8858 691.499,-138.584 662,-172 646.202,-189.896 492.143,-200.83 419.521,-205.029"/>
<polygon fill="black" stroke="black" points="419.21,-201.541 409.423,-205.6 419.605,-208.53 419.21,-201.541"/>
<text text-anchor="start" x="678" y="-118.3" font-family="Courier,monospace" font-size="14.00"> </text>
<text text-anchor="start" x="687" y="-118.3" font-family="Courier,monospace" font-size="10.00">[mod_gen_stdvpart_vp_motor_temperatur.guard_8]</text>
<text text-anchor="start" x="964" y="-118.3" font-family="Courier,monospace" font-size="14.00"> </text>
</g>
<!-- node3_is_niedrig&#45;&gt;node2_is_mittel -->
<g id="edge9" class="edge"><title>node3_is_niedrig&#45;&gt;node2_is_mittel</title>
<path fill="none" stroke="black" d="M623.276,-35.55C502.193,-37.9325 51.5716,-48.2383 31,-70 25.0936,-76.2481 25.33,-84.8719 27.923,-93.1996"/>
<polygon fill="black" stroke="black" points="24.7814,-94.7628 31.8227,-102.679 31.2551,-92.0997 24.7814,-94.7628"/>
<text text-anchor="start" x="31" y="-74.8" font-family="Courier,monospace" font-size="14.00"> </text>
<text text-anchor="start" x="40" y="-74.8" font-family="Courier,monospace" font-size="10.00">[mod_gen_stdvpart_vp_motor_temperatur.guard_9]</text>
<text text-anchor="start" x="317" y="-74.8" font-family="Courier,monospace" font-size="14.00"> </text>
</g>
</g>
</svg>
