<?xml version="1.0" encoding="UTF-8" standalone="no"?>
<!DOCTYPE svg PUBLIC "-//W3C//DTD SVG 1.1//EN"
 "http://www.w3.org/Graphics/SVG/1.1/DTD/svg11.dtd">
<!-- Generated by graphviz version 2.26.3 (20100126.1600)
 -->
<!-- Title: components Pages: 1 -->
<svg width="420pt" height="44pt"
 viewBox="0.00 0.00 420.00 44.00" xmlns="http://www.w3.org/2000/svg" xmlns:xlink="http://www.w3.org/1999/xlink">
<g id="graph1" class="graph" transform="scale(1 1) rotate(0) translate(4 40)">
<title>components</title>
<polygon fill="white" stroke="white" points="-4,5 -4,-40 417,-40 417,5 -4,5"/>
<!-- warn_led -->
<g id="node1" class="node"><title>warn_led</title>
<polygon fill="PowderBlue" stroke="PowderBlue" points="46,-36 12,-36 1.65793e-14,-24 8.28967e-15,-12 12,-1.48234e-14 46,-6.49289e-15 58,-12 58,-24 46,-36"/>
<path fill="PowderBlue" stroke="PowderBlue" d="M12,-36C6,-36 2.07242e-14,-30 1.65793e-14,-24"/>
<path fill="PowderBlue" stroke="PowderBlue" d="M8.28967e-15,-12C4.14483e-15,-6 6,-1.62935e-14 12,-1.48234e-14"/>
<path fill="PowderBlue" stroke="PowderBlue" d="M46,-6.49289e-15C52,-5.0228e-15 58,-6 58,-12"/>
<path fill="PowderBlue" stroke="PowderBlue" d="M58,-24C58,-30 52,-36 46,-36"/>
<polyline fill="none" stroke="black" points="46,-36 12,-36 "/>
<path fill="none" stroke="black" d="M12,-36C6,-36 2.07242e-14,-30 1.65793e-14,-24"/>
<polyline fill="none" stroke="black" points="1.65793e-14,-24 8.28967e-15,-12 "/>
<path fill="none" stroke="black" d="M8.28967e-15,-12C4.14483e-15,-6 6,-1.62935e-14 12,-1.48234e-14"/>
<polyline fill="none" stroke="black" points="12,-1.48234e-14 46,-6.49289e-15 "/>
<path fill="none" stroke="black" d="M46,-6.49289e-15C52,-5.0228e-15 58,-6 58,-12"/>
<polyline fill="none" stroke="black" points="58,-12 58,-24 "/>
<path fill="none" stroke="black" d="M58,-24C58,-30 52,-36 46,-36"/>
<text text-anchor="middle" x="29" y="-13.4" font-family="Arial" font-size="14.00">warn_led</text>
</g>
<!-- system_timer -->
<g id="node2" class="node"><title>system_timer</title>
<polygon fill="PowderBlue" stroke="PowderBlue" points="150,-36 88,-36 76,-24 76,-12 88,-1.57807e-14 150,-5.53562e-15 162,-12 162,-24 150,-36"/>
<path fill="PowderBlue" stroke="PowderBlue" d="M88,-36C82,-36 76,-30 76,-24"/>
<path fill="PowderBlue" stroke="PowderBlue" d="M76,-12C76,-6 82,-1.67721e-14 88,-1.57807e-14"/>
<path fill="PowderBlue" stroke="PowderBlue" d="M150,-5.53562e-15C156,-4.54417e-15 162,-6 162,-12"/>
<path fill="PowderBlue" stroke="PowderBlue" d="M162,-24C162,-30 156,-36 150,-36"/>
<polyline fill="none" stroke="black" points="150,-36 88,-36 "/>
<path fill="none" stroke="black" d="M88,-36C82,-36 76,-30 76,-24"/>
<polyline fill="none" stroke="black" points="76,-24 76,-12 "/>
<path fill="none" stroke="black" d="M76,-12C76,-6 82,-1.67721e-14 88,-1.57807e-14"/>
<polyline fill="none" stroke="black" points="88,-1.57807e-14 150,-5.53562e-15 "/>
<path fill="none" stroke="black" d="M150,-5.53562e-15C156,-4.54417e-15 162,-6 162,-12"/>
<polyline fill="none" stroke="black" points="162,-12 162,-24 "/>
<path fill="none" stroke="black" d="M162,-24C162,-30 156,-36 150,-36"/>
<text text-anchor="middle" x="119" y="-13.4" font-family="Arial" font-size="14.00">system_timer</text>
</g>
<!-- led -->
<g id="node3" class="node"><title>led</title>
<polygon fill="PowderBlue" stroke="PowderBlue" points="222,-36 192,-36 180,-24 180,-12 192,-1.46056e-14 222,-6.71068e-15 234,-12 234,-24 222,-36"/>
<path fill="PowderBlue" stroke="PowderBlue" d="M192,-36C186,-36 180,-30 180,-24"/>
<path fill="PowderBlue" stroke="PowderBlue" d="M180,-12C180,-6 186,-1.61846e-14 192,-1.46056e-14"/>
<path fill="PowderBlue" stroke="PowderBlue" d="M222,-6.71068e-15C228,-5.1317e-15 234,-6 234,-12"/>
<path fill="PowderBlue" stroke="PowderBlue" d="M234,-24C234,-30 228,-36 222,-36"/>
<polyline fill="none" stroke="black" points="222,-36 192,-36 "/>
<path fill="none" stroke="black" d="M192,-36C186,-36 180,-30 180,-24"/>
<polyline fill="none" stroke="black" points="180,-24 180,-12 "/>
<path fill="none" stroke="black" d="M180,-12C180,-6 186,-1.61846e-14 192,-1.46056e-14"/>
<polyline fill="none" stroke="black" points="192,-1.46056e-14 222,-6.71068e-15 "/>
<path fill="none" stroke="black" d="M222,-6.71068e-15C228,-5.1317e-15 234,-6 234,-12"/>
<polyline fill="none" stroke="black" points="234,-12 234,-24 "/>
<path fill="none" stroke="black" d="M234,-24C234,-30 228,-36 222,-36"/>
<text text-anchor="middle" x="207" y="-13.4" font-family="Arial" font-size="14.00">led</text>
</g>
<!-- photo_sensor -->
<g id="node4" class="node"><title>photo_sensor</title>
<polygon fill="PowderBlue" stroke="PowderBlue" points="328,-36 264,-36 252,-24 252,-12 264,-1.58257e-14 328,-5.49056e-15 340,-12 340,-24 328,-36"/>
<path fill="PowderBlue" stroke="PowderBlue" d="M264,-36C258,-36 252,-30 252,-24"/>
<path fill="PowderBlue" stroke="PowderBlue" d="M252,-12C252,-6 258,-1.67946e-14 264,-1.58257e-14"/>
<path fill="PowderBlue" stroke="PowderBlue" d="M328,-5.49056e-15C334,-4.52164e-15 340,-6 340,-12"/>
<path fill="PowderBlue" stroke="PowderBlue" d="M340,-24C340,-30 334,-36 328,-36"/>
<polyline fill="none" stroke="black" points="328,-36 264,-36 "/>
<path fill="none" stroke="black" d="M264,-36C258,-36 252,-30 252,-24"/>
<polyline fill="none" stroke="black" points="252,-24 252,-12 "/>
<path fill="none" stroke="black" d="M252,-12C252,-6 258,-1.67946e-14 264,-1.58257e-14"/>
<polyline fill="none" stroke="black" points="264,-1.58257e-14 328,-5.49056e-15 "/>
<path fill="none" stroke="black" d="M328,-5.49056e-15C334,-4.52164e-15 340,-6 340,-12"/>
<polyline fill="none" stroke="black" points="340,-12 340,-24 "/>
<path fill="none" stroke="black" d="M340,-24C340,-30 334,-36 328,-36"/>
<text text-anchor="middle" x="296" y="-13.4" font-family="Arial" font-size="14.00">photo_sensor</text>
</g>
<!-- control -->
<g id="node5" class="node"><title>control</title>
<polygon fill="PowderBlue" stroke="PowderBlue" points="400,-36 370,-36 358,-24 358,-12 370,-1.46056e-14 400,-6.71068e-15 412,-12 412,-24 400,-36"/>
<path fill="PowderBlue" stroke="PowderBlue" d="M370,-36C364,-36 358,-30 358,-24"/>
<path fill="PowderBlue" stroke="PowderBlue" d="M358,-12C358,-6 364,-1.61846e-14 370,-1.46056e-14"/>
<path fill="PowderBlue" stroke="PowderBlue" d="M400,-6.71068e-15C406,-5.1317e-15 412,-6 412,-12"/>
<path fill="PowderBlue" stroke="PowderBlue" d="M412,-24C412,-30 406,-36 400,-36"/>
<polyline fill="none" stroke="black" points="400,-36 370,-36 "/>
<path fill="none" stroke="black" d="M370,-36C364,-36 358,-30 358,-24"/>
<polyline fill="none" stroke="black" points="358,-24 358,-12 "/>
<path fill="none" stroke="black" d="M358,-12C358,-6 364,-1.61846e-14 370,-1.46056e-14"/>
<polyline fill="none" stroke="black" points="370,-1.46056e-14 400,-6.71068e-15 "/>
<path fill="none" stroke="black" d="M400,-6.71068e-15C406,-5.1317e-15 412,-6 412,-12"/>
<polyline fill="none" stroke="black" points="412,-12 412,-24 "/>
<path fill="none" stroke="black" d="M412,-24C412,-30 406,-36 400,-36"/>
<text text-anchor="middle" x="385" y="-13.4" font-family="Arial" font-size="14.00">control</text>
</g>
</g>
</svg>
